<svg aria-hidden="true" style="position: absolute; width: 0; height: 0; overflow: hidden;" version="1.1" xmlns="http://www.w3.org/2000/svg" xmlns:xlink="http://www.w3.org/1999/xlink">
<defs>
<symbol id="icon-unknown" viewBox="0 0 32 32">
<title>credit-card-unknow</title>
<path fill="#efefef" style="fill: var(--color1, #efefef)" d="M1.5 6.25h29c0.825 0 1.5 0.675 1.5 1.5v16.5c0 0.825-0.675 1.5-1.5 1.5h-29c-0.825 0-1.5-0.675-1.5-1.5v-16.5c0-0.825 0.675-1.5 1.5-1.5z"></path>
<path fill="#ccd0d2" style="fill: var(--color2, #ccd0d2)" d="M28 10.75h-10c-0.55 0-1 0.45-1 1v1.5c0 0.55 0.45 1 1 1h10c0.55 0 1-0.45 1-1v-1.5c0-0.55-0.45-1-1-1zM14 10.75h-10c-0.55 0-1 0.45-1 1v1.5c0 0.55 0.45 1 1 1h10c0.55 0 1-0.45 1-1v-1.5c0-0.55-0.45-1-1-1z"></path>
<path fill="#ccd0d2" style="fill: var(--color2, #ccd0d2)" d="M14.25 17.5h-10.5c-0.425 0-0.75 0.325-0.75 0.75s0.325 0.75 0.75 0.75h10.5c0.425 0 0.75-0.325 0.75-0.75 0-0.4-0.325-0.75-0.75-0.75zM9.75 20h-6c-0.425 0-0.75 0.325-0.75 0.75s0.325 0.75 0.75 0.75h6c0.425 0 0.75-0.325 0.75-0.75 0-0.4-0.325-0.75-0.75-0.75z"></path>
</symbol>
<symbol id="icon-visa" viewBox="0 0 32 32">
<title>visa</title>
<path fill="#2394bc" style="fill: var(--color3, #2394bc)" d="M13.080 10.993l-1.606 9.994h2.567l1.605-9.994c0 0-2.566 0-2.566 0zM20.823 15.064c-0.897-0.443-1.447-0.742-1.447-1.195 0.011-0.412 0.465-0.834 1.479-0.834 0.834-0.021 1.447 0.175 1.912 0.37l0.233 0.104 0.349-2.091c-0.507-0.196-1.311-0.412-2.304-0.412-2.535 0-4.32 1.318-4.331 3.203-0.021 1.391 1.278 2.163 2.25 2.626 0.993 0.475 1.331 0.783 1.331 1.205-0.011 0.648-0.803 0.947-1.542 0.947-1.024 0-1.574-0.154-2.409-0.515l-0.338-0.154-0.359 2.173c0.603 0.268 1.712 0.504 2.863 0.516 2.694 0 4.447-1.298 4.469-3.307 0.009-1.102-0.676-1.946-2.156-2.636zM29.93 11.024h-1.986c-0.612 0-1.077 0.176-1.342 0.804l-3.813 9.159h2.694l0.742-1.983h3.014l0.385 1.991h2.376l-2.070-9.971zM26.972 17.003c0.052 0.005 1.034-3.237 1.034-3.237l0.782 3.237c0 0-1.309 0-1.816 0zM9.329 10.993l-2.515 6.79-0.274-1.339c-0.465-1.545-1.923-3.224-3.55-4.058l2.303 8.591h2.716l4.036-9.983-2.716-0.001z"></path>
<path fill="#efc75e" style="fill: var(--color4, #efc75e)" d="M5.694 12.282c-0.196-0.762-0.821-1.276-1.67-1.287h-3.983l-0.041 0.185c3.107 0.766 5.715 3.123 6.561 5.34l-0.867-4.238z"></path>
</symbol>
<symbol id="icon-american-express" viewBox="0 0 32 32">
<title>american-express</title>
<path fill="#306fc5" style="fill: var(--color5, #306fc5)" d="M32 25.143c0 1.045-0.847 1.892-1.892 1.892h-28.217c-1.045 0-1.892-0.847-1.892-1.892v-18.285c0-1.045 0.847-1.892 1.892-1.892h28.217c1.045 0 1.892 0.847 1.892 1.892v18.285z"></path>
<path fill="#202121" opacity="0.15" style="fill: var(--color6, #202121)" d="M1.345 25.143v-18.285c0-1.045 0.847-1.892 1.892-1.892h-1.345c-1.045 0-1.891 0.847-1.891 1.892v18.285c0 1.045 0.847 1.892 1.892 1.892h1.345c-1.045 0-1.892-0.847-1.892-1.892z"></path>
<path fill="#fff" style="fill: var(--color7, #fff)" d="M4.662 13.797h0.956l-0.478-1.217z"></path>
<path fill="#fff" style="fill: var(--color7, #fff)" d="M9.747 17.882v0.565h1.608v0.609h-1.608v0.652h1.782l0.826-0.913-0.782-0.913z"></path>
<path fill="#fff" style="fill: var(--color7, #fff)" d="M22.306 12.58l-0.522 1.217h1z"></path>
<path fill="#fff" style="fill: var(--color7, #fff)" d="M14.397 20.055v-2.477l-1.13 1.217z"></path>
<path fill="#fff" style="fill: var(--color7, #fff)" d="M16.526 18.273c-0.044-0.261-0.218-0.391-0.478-0.391h-0.912v0.782h0.956c0.261 0 0.435-0.13 0.435-0.391z"></path>
<path fill="#fff" style="fill: var(--color7, #fff)" d="M19.568 18.577c0.087-0.044 0.131-0.174 0.131-0.304 0.044-0.174-0.044-0.261-0.131-0.304s-0.217-0.044-0.347-0.044h-0.869v0.695h0.869c0.13 0 0.261 0 0.348-0.044z"></path>
<path fill="#fff" style="fill: var(--color7, #fff)" d="M25.826 11.45v0.521l-0.261-0.521h-2.042v0.521l-0.261-0.521h-2.781c-0.478 0-0.869 0.087-1.217 0.261v-0.261h-1.956v0.261c-0.217-0.174-0.478-0.261-0.826-0.261h-6.997l-0.478 1.086-0.478-1.087h-2.216v0.521l-0.217-0.521h-1.912l-0.869 2.043-0.999 2.216-0.018 0.044h2.263l0.016-0.044 0.261-0.652h0.565l0.261 0.695h2.52v-0.521l0.217 0.521h1.26l0.217-0.521v0.521h6.041v-1.13h0.087c0.087 0 0.087 0 0.087 0.13v0.956h3.129v-0.261c0.261 0.131 0.652 0.261 1.173 0.261h1.304l0.261-0.695h0.608l0.261 0.695h2.52v-0.652l0.391 0.652h2.043v-4.259h-1.956zM11.094 15.101h-0.695v-2.39l-0.043 0.1v-0.001l-1.011 2.292h-0.64l-1.043-2.39v2.39h-1.478l-0.304-0.652h-1.478l-0.304 0.652h-0.764l1.286-3.042h1.086l1.217 2.912v-2.912h1.151l0.021 0.044h0.002l0.548 1.193 0.394 0.894 0.014-0.045 0.869-2.086h1.174v3.042h0zM14.093 12.71h-1.695v0.565h1.651v0.608h-1.651v0.609h1.695v0.652h-2.434v-3.085h2.434v0.652zM17.192 13.831c0.001 0.001 0.003 0.002 0.004 0.003 0.016 0.017 0.030 0.035 0.043 0.052 0.083 0.109 0.151 0.271 0.154 0.509 0 0.004 0 0.008 0.001 0.012 0 0.002 0 0.004 0 0.007 0 0.001-0 0.002-0 0.004 0.001 0.024 0.002 0.048 0.002 0.075v0.608h-0.652v-0.348c0-0.174 0-0.435-0.131-0.608-0.041-0.041-0.083-0.068-0.128-0.087-0.065-0.042-0.189-0.043-0.393-0.043h-0.783v1.087h-0.739v-3.042h1.652c0.391 0 0.652 0 0.869 0.13 0.213 0.128 0.342 0.34 0.346 0.676-0.010 0.463-0.307 0.716-0.52 0.802 0 0 0.145 0.029 0.275 0.165zM18.656 15.101h-0.739v-3.042h0.739v3.042zM27.13 15.101h-0.956l-1.391-2.303v1.912l-0.005-0.005v0.398h-0.734v-0.002h-0.739l-0.261-0.652h-1.521l-0.261 0.695h-0.826c-0.347 0-0.782-0.087-1.043-0.348s-0.391-0.608-0.391-1.173c0-0.435 0.087-0.869 0.391-1.217 0.217-0.261 0.608-0.348 1.086-0.348h0.695v0.652h-0.695c-0.261 0-0.391 0.043-0.565 0.174-0.13 0.13-0.217 0.391-0.217 0.695 0 0.348 0.044 0.565 0.217 0.739 0.131 0.131 0.304 0.174 0.522 0.174h0.304l0.999-2.39h1.087l1.217 2.912v-2.912h1.086l1.26 2.129v-2.129h0.739v2.999h0v-0z"></path>
<path fill="#fff" style="fill: var(--color7, #fff)" d="M16.573 13.325c0.013-0.014 0.024-0.029 0.034-0.047 0.039-0.062 0.084-0.175 0.060-0.328-0.001-0.014-0.004-0.027-0.007-0.040-0.001-0.004-0.001-0.007-0.002-0.010l-0 0c-0.022-0.074-0.077-0.12-0.132-0.148-0.087-0.043-0.218-0.043-0.348-0.043h-0.869v0.695h0.869c0.13 0 0.261 0 0.348-0.044 0.013-0.007 0.025-0.016 0.036-0.026l0 0.001c0-0 0.005-0.005 0.010-0.011z"></path>
<path fill="#fff" style="fill: var(--color7, #fff)" d="M29.694 19.447c0-0.304-0.087-0.608-0.217-0.826v-1.956h-0.002v-0.131c0 0-1.822 0-2.093 0s-0.6 0.261-0.6 0.261v-0.261h-1.999c-0.304 0-0.695 0.087-0.869 0.261v-0.261h-3.564v0.261c-0.261-0.217-0.739-0.261-0.956-0.261h-2.347v0.261c-0.217-0.217-0.739-0.261-1-0.261h-2.607l-0.609 0.652-0.565-0.652h-3.911v4.39h3.824l0.628-0.629 0.545 0.629h2.434v-1h0.217c0.304 0 0.695 0 0.999-0.131v1.174h1.956v-1.13h0.087c0.131 0 0.131 0 0.131 0.13v1h5.91c0.391 0 0.782-0.087 1-0.261v0.261h1.869c0.391 0 0.782-0.043 1.043-0.217 0.4-0.24 0.652-0.665 0.69-1.172 0.002-0.015 0.004-0.030 0.005-0.045l-0.003-0.002c0.002-0.028 0.003-0.056 0.003-0.084zM16.005 19.186h-0.869v1.13h-1.428l-0.831-0.956-0.003 0.003-0.041-0.047-0.956 1h-2.781v-3.042h2.825l0.934 1.022 0.022-0.023 0.913-0.999h2.303c0.447 0 0.948 0.11 1.137 0.565 0.023 0.090 0.036 0.19 0.036 0.304 0 0.869-0.608 1.043-1.26 1.043zM20.351 19.142c0.087 0.13 0.13 0.304 0.13 0.565v0.608h-0.739v-0.391c0-0.174 0-0.478-0.131-0.609-0.087-0.13-0.261-0.13-0.521-0.13h-0.782v1.13h-0.739v-3.086h1.651c0.347 0 0.652 0 0.869 0.13s0.391 0.348 0.391 0.695c0 0.478-0.304 0.739-0.521 0.826 0.217 0.087 0.348 0.174 0.391 0.261zM23.349 17.882h-1.695v0.565h1.651v0.609h-1.651v0.608h1.695v0.652h-2.434v-3.086h2.434v0.652zM25.174 20.316h-1.391v-0.652h1.391c0.13 0 0.217 0 0.304-0.087 0.044-0.044 0.087-0.13 0.087-0.217s-0.043-0.174-0.087-0.217c-0.044-0.043-0.131-0.087-0.261-0.087-0.695-0.044-1.521 0-1.521-0.956 0-0.435 0.261-0.913 1.043-0.913h1.434v0.739h-1.347c-0.13 0-0.217 0-0.304 0.044s-0.087 0.131-0.087 0.217c0 0.13 0.087 0.174 0.174 0.217s0.174 0.044 0.261 0.044h0.391c0.391 0 0.652 0.087 0.826 0.261 0.13 0.13 0.217 0.348 0.217 0.652 0 0.652-0.391 0.956-1.13 0.956zM28.912 20.011c-0.174 0.174-0.478 0.304-0.913 0.304h-1.39v-0.652h1.39c0.13 0 0.218 0 0.304-0.087 0.043-0.044 0.087-0.13 0.087-0.217s-0.044-0.174-0.087-0.217c-0.044-0.043-0.13-0.087-0.261-0.087-0.695-0.044-1.521 0-1.521-0.956 0-0.413 0.236-0.786 0.819-0.897 0.070-0.010 0.143-0.016 0.224-0.016h1.434v0.739h-1.347c-0.13 0-0.217 0-0.304 0.044-0.044 0.044-0.087 0.131-0.087 0.217 0 0.13 0.044 0.174 0.174 0.217 0.087 0.044 0.174 0.044 0.261 0.044h0.391c0.19 0 0.334 0.023 0.465 0.070 0.12 0.044 0.519 0.222 0.608 0.687 0.008 0.049 0.013 0.1 0.013 0.156 0 0.261-0.087 0.478-0.261 0.652z"></path>
</symbol>
<symbol id="icon-mastercard" viewBox="0 0 32 32">
<title>mastercard</title>
<path fill="#ffb600" style="fill: var(--color8, #ffb600)" d="M32 16c0 5.283-4.267 9.6-9.6 9.6-5.283 0-9.6-4.317-9.6-9.6v0c0-5.283 4.267-9.6 9.549-9.6 5.384 0 9.651 4.317 9.651 9.6v0z"></path>
<path fill="#f7981d" style="fill: var(--color9, #f7981d)" d="M22.4 6.4c5.283 0 9.6 4.317 9.6 9.6v0c0 5.283-4.267 9.6-9.6 9.6-5.283 0-9.6-4.317-9.6-9.6z"></path>
<path fill="#ff8500" style="fill: var(--color10, #ff8500)" d="M22.4 6.4c5.283 0 9.6 4.317 9.6 9.6v0c0 5.283-4.267 9.6-9.6 9.6z"></path>
<path fill="#ff5050" style="fill: var(--color11, #ff5050)" d="M9.498 6.4c-5.232 0.051-9.498 4.317-9.498 9.6s4.267 9.6 9.6 9.6c2.489 0 4.724-0.965 6.451-2.489v0 0c0.356-0.305 0.66-0.66 0.965-1.016h-1.981c-0.254-0.305-0.508-0.66-0.711-0.965h3.403c0.203-0.305 0.406-0.66 0.559-1.016h-4.521c-0.152-0.305-0.305-0.66-0.406-1.016h5.283c0.305-0.965 0.508-1.981 0.508-3.048 0-0.711-0.102-1.371-0.203-2.032h-5.892c0.051-0.356 0.152-0.66 0.254-1.016h5.283c-0.102-0.356-0.254-0.711-0.406-1.016h-4.47c0.152-0.356 0.356-0.66 0.559-1.016h3.403c-0.203-0.356-0.457-0.711-0.762-1.016h-1.879c0.305-0.356 0.61-0.66 0.965-0.965-1.676-1.575-3.962-2.489-6.451-2.489 0-0.102 0-0.102-0.051-0.102z"></path>
<path fill="#e52836" style="fill: var(--color12, #e52836)" d="M0 16c0 5.283 4.267 9.6 9.6 9.6 2.489 0 4.724-0.965 6.451-2.489v0 0c0.356-0.305 0.66-0.66 0.965-1.016h-1.981c-0.254-0.305-0.508-0.66-0.711-0.965h3.403c0.203-0.305 0.406-0.66 0.559-1.016h-4.521c-0.152-0.305-0.305-0.66-0.406-1.016h5.283c0.305-0.965 0.508-1.981 0.508-3.048 0-0.711-0.102-1.371-0.203-2.032h-5.892c0.051-0.356 0.152-0.66 0.254-1.016h5.283c-0.102-0.356-0.254-0.711-0.406-1.016h-4.47c0.152-0.356 0.356-0.66 0.559-1.016h3.403c-0.203-0.356-0.457-0.711-0.762-1.016h-1.879c0.305-0.356 0.61-0.66 0.965-0.965-1.676-1.575-3.962-2.489-6.451-2.489h-0.051z"></path>
<path fill="#cb2026" style="fill: var(--color13, #cb2026)" d="M9.6 25.6c2.489 0 4.724-0.965 6.451-2.489v0 0c0.356-0.305 0.66-0.66 0.965-1.016h-1.981c-0.254-0.305-0.508-0.66-0.711-0.965h3.403c0.203-0.305 0.406-0.66 0.559-1.016h-4.521c-0.152-0.305-0.305-0.66-0.406-1.016h5.283c0.305-0.965 0.508-1.981 0.508-3.048 0-0.711-0.102-1.371-0.203-2.032h-5.892c0.051-0.356 0.152-0.66 0.254-1.016h5.283c-0.102-0.356-0.254-0.711-0.406-1.016h-4.47c0.152-0.356 0.356-0.66 0.559-1.016h3.403c-0.203-0.356-0.457-0.711-0.762-1.016h-1.879c0.305-0.356 0.61-0.66 0.965-0.965-1.676-1.575-3.962-2.489-6.451-2.489h-0.051z"></path>
<path fill="#fff" style="fill: var(--color7, #fff)" d="M13.003 18.438l0.152-0.863c-0.051 0-0.152 0.051-0.254 0.051-0.356 0-0.406-0.203-0.356-0.305l0.305-1.778h0.559l0.152-0.965h-0.508l0.102-0.61h-1.016c0 0-0.61 3.352-0.61 3.759 0 0.61 0.356 0.863 0.813 0.863 0.305 0 0.559-0.102 0.66-0.152z"></path>
<path fill="#fff" style="fill: var(--color7, #fff)" d="M13.359 16.813c0 1.422 0.965 1.778 1.778 1.778 0.762 0 1.067-0.152 1.067-0.152l0.203-0.965c0 0-0.559 0.254-1.067 0.254-1.117 0-0.914-0.813-0.914-0.813h2.083c0 0 0.152-0.66 0.152-0.914 0-0.66-0.356-1.473-1.473-1.473-1.067-0.102-1.829 1.016-1.829 2.286zM15.136 15.34c0.559 0 0.457 0.66 0.457 0.711h-1.117c0-0.051 0.102-0.711 0.66-0.711z"></path>
<path fill="#fff" style="fill: var(--color7, #fff)" d="M21.587 18.438l0.203-1.117c0 0-0.508 0.254-0.863 0.254-0.711 0-1.016-0.559-1.016-1.168 0-1.219 0.61-1.879 1.321-1.879 0.508 0 0.914 0.305 0.914 0.305l0.152-1.067c0 0-0.61-0.254-1.168-0.254-1.168 0-2.337 1.016-2.337 2.946 0 1.27 0.61 2.133 1.829 2.133 0.406 0 0.965-0.152 0.965-0.152z"></path>
<path fill="#fff" style="fill: var(--color7, #fff)" d="M7.416 14.425c-0.711 0-1.219 0.203-1.219 0.203l-0.152 0.864c0 0 0.457-0.203 1.117-0.203 0.356 0 0.66 0.051 0.66 0.356 0 0.203-0.051 0.254-0.051 0.254s-0.305 0-0.457 0c-0.864 0-1.829 0.356-1.829 1.524 0 0.914 0.61 1.117 0.965 1.117 0.711 0 1.016-0.457 1.067-0.457l-0.051 0.406h0.914l0.406-2.794c0-1.219-1.016-1.27-1.371-1.27zM7.619 16.711c0 0.152-0.102 0.965-0.711 0.965-0.305 0-0.406-0.254-0.406-0.406 0-0.254 0.152-0.61 0.914-0.61 0.152 0.051 0.203 0.051 0.203 0.051z"></path>
<path fill="#fff" style="fill: var(--color7, #fff)" d="M9.752 18.54c0.254 0 1.524 0.051 1.524-1.321 0-1.27-1.219-1.016-1.219-1.524 0-0.254 0.203-0.356 0.559-0.356 0.152 0 0.711 0.051 0.711 0.051l0.152-0.914c0 0-0.356-0.102-0.965-0.102-0.762 0-1.524 0.305-1.524 1.321 0 1.168 1.27 1.067 1.27 1.524 0 0.305-0.356 0.356-0.61 0.356-0.457 0-0.914-0.152-0.914-0.152l-0.152 0.914c0.051 0.102 0.305 0.203 1.168 0.203z"></path>
<path fill="#fff" style="fill: var(--color7, #fff)" d="M30.019 13.613l-0.203 1.371c0 0-0.406-0.508-0.965-0.508-0.914 0-1.727 1.117-1.727 2.438 0 0.813 0.406 1.676 1.27 1.676 0.61 0 0.965-0.406 0.965-0.406l-0.051 0.356h1.016l0.762-4.876-1.067-0.051zM29.562 16.305c0 0.559-0.254 1.27-0.813 1.27-0.356 0-0.559-0.305-0.559-0.813 0-0.813 0.356-1.321 0.813-1.321 0.356 0 0.559 0.254 0.559 0.863z"></path>
<path fill="#fff" style="fill: var(--color7, #fff)" d="M1.879 18.489l0.61-3.657 0.102 3.657h0.711l1.321-3.657-0.559 3.657h1.067l0.813-4.876h-1.676l-1.016 2.997-0.051-2.997h-1.473l-0.813 4.876h0.965z"></path>
<path fill="#fff" style="fill: var(--color7, #fff)" d="M17.625 18.489c0.305-1.676 0.356-3.048 1.067-2.794 0.102-0.66 0.254-0.914 0.356-1.168 0 0-0.051 0-0.203 0-0.457 0-0.813 0.61-0.813 0.61l0.102-0.559h-0.965l-0.66 3.962h1.117v-0.051z"></path>
<path fill="#fff" style="fill: var(--color7, #fff)" d="M23.924 14.425c-0.711 0-1.219 0.203-1.219 0.203l-0.152 0.864c0 0 0.457-0.203 1.117-0.203 0.356 0 0.66 0.051 0.66 0.356 0 0.203-0.051 0.254-0.051 0.254s-0.305 0-0.457 0c-0.863 0-1.829 0.356-1.829 1.524 0 0.914 0.61 1.117 0.965 1.117 0.711 0 1.016-0.457 1.067-0.457l-0.051 0.406h0.914l0.406-2.794c0.051-1.219-1.016-1.27-1.371-1.27zM24.178 16.711c0 0.152-0.102 0.965-0.711 0.965-0.305 0-0.406-0.254-0.406-0.406 0-0.254 0.152-0.61 0.914-0.61 0.152 0.051 0.152 0.051 0.203 0.051z"></path>
<path fill="#fff" style="fill: var(--color7, #fff)" d="M26.159 18.489c0.305-1.676 0.356-3.048 1.067-2.794 0.102-0.66 0.254-0.914 0.356-1.168 0 0-0.051 0-0.203 0-0.457 0-0.813 0.61-0.813 0.61l0.102-0.559h-0.965l-0.66 3.962h1.117v-0.051z"></path>
<path fill="#dce5e5" style="fill: var(--color14, #dce5e5)" d="M11.429 17.727c0 0.61 0.356 0.863 0.813 0.863 0.356 0 0.66-0.102 0.762-0.152l0.152-0.863c-0.051 0-0.152 0.051-0.254 0.051-0.356 0-0.406-0.203-0.356-0.305l0.305-1.778h0.559l0.152-0.965h-0.508l0.102-0.61z"></path>
<path fill="#dce5e5" style="fill: var(--color14, #dce5e5)" d="M13.867 16.813c0 1.422 0.457 1.778 1.27 1.778 0.762 0 1.067-0.152 1.067-0.152l0.203-0.965c0 0-0.559 0.254-1.067 0.254-1.117 0-0.914-0.813-0.914-0.813h2.083c0 0 0.152-0.66 0.152-0.914 0-0.66-0.356-1.473-1.473-1.473-1.067-0.102-1.321 1.016-1.321 2.286zM15.136 15.34c0.559 0 0.66 0.66 0.66 0.711h-1.321c0-0.051 0.102-0.711 0.66-0.711z"></path>
<path fill="#dce5e5" style="fill: var(--color14, #dce5e5)" d="M21.587 18.438l0.203-1.117c0 0-0.508 0.254-0.863 0.254-0.711 0-1.016-0.559-1.016-1.168 0-1.219 0.61-1.879 1.321-1.879 0.508 0 0.914 0.305 0.914 0.305l0.152-1.067c0 0-0.61-0.254-1.168-0.254-1.168 0-1.829 1.016-1.829 2.946 0 1.27 0.102 2.133 1.321 2.133 0.406 0 0.965-0.152 0.965-0.152z"></path>
<path fill="#dce5e5" style="fill: var(--color14, #dce5e5)" d="M6.044 15.543c0 0 0.457-0.203 1.117-0.203 0.356 0 0.66 0.051 0.66 0.356 0 0.203-0.051 0.254-0.051 0.254s-0.305 0-0.457 0c-0.864 0-1.829 0.356-1.829 1.524 0 0.914 0.61 1.117 0.965 1.117 0.711 0 1.016-0.457 1.067-0.457l-0.051 0.406h0.914l0.406-2.794c0-1.168-1.016-1.219-1.422-1.219zM8.127 16.711c0 0.152-0.61 0.965-1.219 0.965-0.305 0-0.406-0.254-0.406-0.406 0-0.254 0.152-0.61 0.914-0.61 0.152 0.051 0.711 0.051 0.711 0.051z"></path>
<path fill="#dce5e5" style="fill: var(--color14, #dce5e5)" d="M8.635 18.438c0 0 0.305 0.102 1.168 0.102 0.254 0 1.524 0.051 1.524-1.321 0-1.27-1.219-1.016-1.219-1.524 0-0.254 0.203-0.356 0.559-0.356 0.152 0 0.711 0.051 0.711 0.051l0.152-0.914c0 0-0.356-0.102-0.965-0.102-0.762 0-1.016 0.305-1.016 1.321 0 1.168 0.762 1.067 0.762 1.524 0 0.305-0.356 0.356-0.61 0.356z"></path>
<path fill="#dce5e5" style="fill: var(--color14, #dce5e5)" d="M29.816 14.984c0 0-0.406-0.508-0.965-0.508-0.914 0-1.219 1.117-1.219 2.438 0 0.813-0.102 1.676 0.762 1.676 0.61 0 0.965-0.406 0.965-0.406l-0.051 0.356h1.016l0.762-4.876zM29.765 16.305c0 0.559-0.457 1.27-1.016 1.27-0.356 0-0.559-0.305-0.559-0.813 0-0.813 0.356-1.321 0.813-1.321 0.356 0 0.762 0.254 0.762 0.863z"></path>
<path fill="#dce5e5" style="fill: var(--color14, #dce5e5)" d="M1.879 18.489l0.61-3.657 0.102 3.657h0.711l1.321-3.657-0.559 3.657h1.067l0.813-4.876h-1.27l-1.422 2.997-0.051-2.997h-0.559l-1.727 4.876h0.965z"></path>
<path fill="#dce5e5" style="fill: var(--color14, #dce5e5)" d="M16.559 18.489h1.067c0.305-1.676 0.356-3.048 1.067-2.794 0.102-0.66 0.254-0.914 0.356-1.168 0 0-0.051 0-0.203 0-0.457 0-0.813 0.61-0.813 0.61l0.102-0.559z"></path>
<path fill="#dce5e5" style="fill: var(--color14, #dce5e5)" d="M22.552 15.543c0 0 0.457-0.203 1.117-0.203 0.356 0 0.66 0.051 0.66 0.356 0 0.203-0.051 0.254-0.051 0.254s-0.305 0-0.457 0c-0.863 0-1.829 0.356-1.829 1.524 0 0.914 0.61 1.117 0.965 1.117 0.711 0 1.016-0.457 1.067-0.457l-0.051 0.406h0.914l0.406-2.794c0-1.168-1.016-1.219-1.422-1.219zM24.635 16.711c0 0.152-0.61 0.965-1.219 0.965-0.305 0-0.406-0.254-0.406-0.406 0-0.254 0.152-0.61 0.914-0.61 0.203 0.051 0.711 0.051 0.711 0.051z"></path>
<path fill="#dce5e5" style="fill: var(--color14, #dce5e5)" d="M25.092 18.489h1.067c0.305-1.676 0.356-3.048 1.067-2.794 0.102-0.66 0.254-0.914 0.356-1.168 0 0-0.051 0-0.203 0-0.457 0-0.813 0.61-0.813 0.61l0.102-0.559z"></path>
</symbol>
<symbol id="icon-warning" viewBox="0 0 32 32">
<title>warning</title>
<path d="M16 2.899l13.409 26.726h-26.819l13.409-26.726zM16 0c-0.69 0-1.379 0.465-1.903 1.395l-13.659 27.222c-1.046 1.86-0.156 3.383 1.978 3.383h27.166c2.134 0 3.025-1.522 1.978-3.383h0l-13.659-27.222c-0.523-0.93-1.213-1.395-1.903-1.395v0z"></path>
<path d="M18 26c0 1.105-0.895 2-2 2s-2-0.895-2-2c0-1.105 0.895-2 2-2s2 0.895 2 2z"></path>
<path d="M16 22c-1.105 0-2-0.895-2-2v-6c0-1.105 0.895-2 2-2s2 0.895 2 2v6c0 1.105-0.895 2-2 2z"></path>
</symbol>
<symbol id="icon-notification" viewBox="0 0 32 32">
<title>notification</title>
<path d="M16 3c-3.472 0-6.737 1.352-9.192 3.808s-3.808 5.72-3.808 9.192c0 3.472 1.352 6.737 3.808 9.192s5.72 3.808 9.192 3.808c3.472 0 6.737-1.352 9.192-3.808s3.808-5.72 3.808-9.192c0-3.472-1.352-6.737-3.808-9.192s-5.72-3.808-9.192-3.808zM16 0v0c8.837 0 16 7.163 16 16s-7.163 16-16 16c-8.837 0-16-7.163-16-16s7.163-16 16-16zM14 22h4v4h-4zM14 6h4v12h-4z"></path>
</symbol>
<symbol id="icon-question" viewBox="0 0 32 32">
<title>question</title>
<path d="M14 22h4v4h-4zM22 8c1.105 0 2 0.895 2 2v6l-6 4h-4v-2l6-4v-2h-10v-4h12zM16 3c-3.472 0-6.737 1.352-9.192 3.808s-3.808 5.72-3.808 9.192c0 3.472 1.352 6.737 3.808 9.192s5.72 3.808 9.192 3.808c3.472 0 6.737-1.352 9.192-3.808s3.808-5.72 3.808-9.192c0-3.472-1.352-6.737-3.808-9.192s-5.72-3.808-9.192-3.808zM16 0v0c8.837 0 16 7.163 16 16s-7.163 16-16 16c-8.837 0-16-7.163-16-16s7.163-16 16-16z"></path>
</symbol>
<symbol id="icon-cross" viewBox="0 0 32 32">
<title>cross</title>
<path d="M31.708 25.708c-0-0-0-0-0-0l-9.708-9.708 9.708-9.708c0-0 0-0 0-0 0.105-0.105 0.18-0.227 0.229-0.357 0.133-0.356 0.057-0.771-0.229-1.057l-4.586-4.586c-0.286-0.286-0.702-0.361-1.057-0.229-0.13 0.048-0.252 0.124-0.357 0.228 0 0-0 0-0 0l-9.708 9.708-9.708-9.708c-0-0-0-0-0-0-0.105-0.104-0.227-0.18-0.357-0.228-0.356-0.133-0.771-0.057-1.057 0.229l-4.586 4.586c-0.286 0.286-0.361 0.702-0.229 1.057 0.049 0.13 0.124 0.252 0.229 0.357 0 0 0 0 0 0l9.708 9.708-9.708 9.708c-0 0-0 0-0 0-0.104 0.105-0.18 0.227-0.229 0.357-0.133 0.355-0.057 0.771 0.229 1.057l4.586 4.586c0.286 0.286 0.702 0.361 1.057 0.229 0.13-0.049 0.252-0.124 0.357-0.229 0-0 0-0 0-0l9.708-9.708 9.708 9.708c0 0 0 0 0 0 0.105 0.105 0.227 0.18 0.357 0.229 0.356 0.133 0.771 0.057 1.057-0.229l4.586-4.586c0.286-0.286 0.362-0.702 0.229-1.057-0.049-0.13-0.124-0.252-0.229-0.357z"></path>
</symbol>
<symbol id="icon-checkmark" viewBox="0 0 32 32">
<title>checkmark</title>
<path d="M27 4l-15 15-7-7-5 5 12 12 20-20z"></path>
</symbol>
<symbol id="icon-github" viewBox="0 0 32 32">
<title>github</title>
<path d="M16 0.395c-8.836 0-16 7.163-16 16 0 7.069 4.585 13.067 10.942 15.182 0.8 0.148 1.094-0.347 1.094-0.77 0-0.381-0.015-1.642-0.022-2.979-4.452 0.968-5.391-1.888-5.391-1.888-0.728-1.849-1.776-2.341-1.776-2.341-1.452-0.993 0.11-0.973 0.11-0.973 1.606 0.113 2.452 1.649 2.452 1.649 1.427 2.446 3.743 1.739 4.656 1.33 0.143-1.034 0.558-1.74 1.016-2.14-3.554-0.404-7.29-1.777-7.29-7.907 0-1.747 0.625-3.174 1.649-4.295-0.166-0.403-0.714-2.030 0.155-4.234 0 0 1.344-0.43 4.401 1.64 1.276-0.355 2.645-0.532 4.005-0.539 1.359 0.006 2.729 0.184 4.008 0.539 3.054-2.070 4.395-1.64 4.395-1.64 0.871 2.204 0.323 3.831 0.157 4.234 1.026 1.12 1.647 2.548 1.647 4.295 0 6.145-3.743 7.498-7.306 7.895 0.574 0.497 1.085 1.47 1.085 2.963 0 2.141-0.019 3.864-0.019 4.391 0 0.426 0.288 0.925 1.099 0.768 6.354-2.118 10.933-8.113 10.933-15.18 0-8.837-7.164-16-16-16z"></path>
</symbol>
</defs>
</svg>
